<?xml version="1.0" encoding="UTF-8"?>
<svg id="Capa_2" data-name="Capa 2" xmlns="http://www.w3.org/2000/svg" viewBox="0 0 864.32 206.26">
  <defs>
    <style>
      .cls-1 {
        fill: #242320;
      }

      .cls-2 {
        fill: #cea659;
      }
    </style>
  </defs>
  <g id="Horizontal">
    <g>
      <path class="cls-2" d="M103.03,206.26C46.22,206.26,0,160.04,0,103.22S46.22.19,103.03.19s103.03,46.22,103.03,103.03-46.22,103.03-103.03,103.03ZM103.03,6.23C49.55,6.23,6.04,49.74,6.04,103.22s43.51,96.99,96.99,96.99,96.99-43.51,96.99-96.99S156.51,6.23,103.03,6.23Z"/>
      <path class="cls-2" d="M150.34,58.21c.6-1.68,1.71-2.82,3.34-3.41,1.64-.6,4.24-.99,7.8-1.19v-2.97c-2.28.15-4.99.26-8.14.33-3.14.08-6.72.11-10.73.11-4.33,0-8.36,2.26-10.61,5.97l-28.24,46.43-.07.12-.63-1.03-25.11-40.69c-4.15-6.73-11.51-10.8-19.41-10.8h-.15c-5.95,0-10.55-.15-13.82-.44v2.97c3.57.2,6.16.6,7.8,1.19,1.63.59,2.75,1.73,3.34,3.41.6,1.69.89,4.41.89,8.18v72.2c0,3.76-.29,6.6-.89,8.54-.6,1.93-1.74,3.31-3.42,4.16-1.68.84-4.26,1.36-7.73,1.56v2.97c3.27-.3,7.87-.45,13.82-.45,6.53,0,11.59.15,15.15.45v-2.97c-3.96-.2-6.89-.73-8.77-1.56-1.88-.85-3.14-2.2-3.78-4.08-.65-1.88-.97-4.76-.97-8.62V60.14l30.58,43.8,5.08,7.29s.03.06.06.09l1.25,1.8c-5.33,8.02-9.75,16.62-9.94,26.3-.05,5.16,1.41,10.9,5.74,14.09,4.57,3.46,11.42,2.91,15.65-.8,8.33-7.08,6.99-22.43,2.28-35.13-1.25-3.07-3.03-6.72-4.59-9.67l.35-.57,29.14-46.89v79.63c0,3.76-.29,6.48-.89,8.17s-1.71,2.82-3.34,3.42c-1.63.6-4.23.99-7.8,1.19v2.97c4.16-.3,10.5-.45,19.01-.45,8.02,0,14.31.15,18.87.45v-2.97c-3.57-.2-6.16-.6-7.8-1.19-1.63-.6-2.75-1.74-3.34-3.42s-.89-4.4-.89-8.17v-73.68c0-3.76.29-6.48.89-8.18ZM104.14,145.47c-5.6,7.6-13.16.41-12.71-6.84,0-3.7,1.19-7.57,3.02-11.39,3.15-6.33,2.55-4.7,5.61-9.56,0,0,0,0,0-.02,2.73,4.51,4.75,9.27,5.78,14.29.92,4.45.96,9.64-1.71,13.51Z"/>
      <path class="cls-1" d="M269.72,200.52v5.74h-26.84v-36.85h26.13v5.74h-19.48v9.58h17.28v5.63h-17.28v10.16h20.2Z"/>
      <path class="cls-1" d="M316.92,169.41l-16.06,36.85h-6.74l-16.11-36.85h7.42l12.27,28.43,12.37-28.43h6.84Z"/>
      <path class="cls-1" d="M352.19,200.52v5.74h-26.85v-36.85h26.14v5.74h-19.49v9.58h17.29v5.63h-17.29v10.16h20.2Z"/>
      <path class="cls-1" d="M393.35,169.41v36.85h-5.63l-20.32-24.95v24.95h-6.79v-36.85h5.63l20.32,24.95v-24.95h6.79Z"/>
      <path class="cls-1" d="M413.97,175.2h-12.21v-5.79h31.27v5.79h-12.21v31.06h-6.84v-31.06Z"/>
      <path class="cls-1" d="M441.45,201.96l2.37-5.17c2.95,2.3,7.63,3.94,12.16,3.94,5.74,0,8.16-2,8.16-4.66,0-7.73-21.9-2.66-21.9-15.97,0-5.78,4.74-10.7,14.84-10.7,4.42,0,9.05,1.13,12.27,3.17l-2.16,5.17c-3.32-1.89-6.95-2.81-10.16-2.81-5.69,0-8,2.15-8,4.86,0,7.63,21.84,2.66,21.84,15.81,0,5.73-4.79,10.65-14.9,10.65-5.74,0-11.48-1.74-14.53-4.3Z"/>
      <path class="cls-1" d="M362.95,4.16c-1.48.59-2.5,1.73-3.04,3.42-.54,1.68-.82,4.41-.82,8.17v73.68c0,3.77.27,6.49.82,8.17.54,1.69,1.58,2.82,3.11,3.42,1.53.59,3.93.99,7.19,1.19v2.97c-5.44-.3-13.19-.45-23.27-.45-10.58,0-18.38.15-23.42.45v-2.97c3.56-.2,6.15-.59,7.78-1.19,1.63-.59,2.74-1.73,3.34-3.42.59-1.68.89-4.41.89-8.17V11.74l-35.72,93.58h-2.37l-40.02-95.66v71.15c0,5.84.3,10.13.89,12.85.59,2.73,1.88,4.7,3.85,5.94,1.98,1.24,5.19,2.11,9.63,2.6v2.97c-3.85-.3-9.19-.45-16.01-.45-5.44,0-9.73.15-12.9.45v-2.97c3.26-.49,5.66-1.34,7.19-2.53,1.53-1.19,2.57-3.07,3.11-5.64.54-2.57.82-6.39.82-11.44V15.75c0-3.76-.27-6.48-.82-8.17-.54-1.68-1.58-2.82-3.11-3.42-1.53-.59-3.93-.99-7.19-1.19V0c3.16.3,7.46.45,12.9.45,9.09,0,16.9-.15,23.42-.45l29.94,72.34L336.41.45h10.52c10.08,0,17.84-.15,23.27-.45v2.97c-3.36.2-5.78.59-7.26,1.19Z"/>
      <path class="cls-1" d="M428.32,3.16c-3.36.2-5.78.59-7.26,1.19-1.48.59-2.5,1.74-3.04,3.42-.54,1.69-.82,4.41-.82,8.18v73.73c0,3.77.27,6.49.82,8.18.54,1.69,1.56,2.82,3.04,3.42,1.48.59,3.9.99,7.26,1.19v2.97c-5.34-.3-12.8-.45-22.38-.45-10.58,0-18.38.15-23.42.45v-2.97c3.26-.2,5.66-.59,7.19-1.19,1.53-.59,2.57-1.73,3.11-3.42.54-1.68.82-4.41.82-8.18V15.95c0-3.76-.27-6.49-.82-8.18-.54-1.68-1.58-2.82-3.11-3.42-1.53-.59-3.93-.99-7.19-1.19V.19c5.04.3,12.85.45,23.42.45,9.58,0,17.05-.15,22.38-.45v2.97Z"/>
      <path class="cls-1" d="M487.32,3.16c-3.56.2-6.15.59-7.78,1.19-1.63.59-2.74,1.74-3.34,3.42-.59,1.69-.89,4.41-.89,8.18v75.52c0,3.17.25,5.48.74,6.91.49,1.44,1.36,2.4,2.59,2.9,1.23.5,3.24.74,6,.74h7.26c6.72,0,12.53-3.02,17.42-9.07,4.89-6.04,8.08-14.07,9.56-24.08h3.41c-.3,3.37-.44,7.73-.44,13.08,0,9.51.35,17.34,1.04,23.49-6.72-.3-18.04-.45-33.95-.45-21.54,0-37.65.15-48.32.45v-2.97c3.26-.2,5.66-.59,7.19-1.19,1.53-.59,2.57-1.73,3.11-3.42.54-1.68.82-4.41.82-8.18V15.95c0-3.76-.27-6.49-.82-8.18-.54-1.68-1.58-2.82-3.11-3.42-1.53-.59-3.93-.99-7.19-1.19V.19c5.04.3,12.85.45,23.42.45s17.84-.15,23.27-.45v2.97Z"/>
      <path class="cls-1" d="M632.45,100.1c1.68,1.48,3.31,2.27,4.89,2.37v2.96c-5.93-.3-13.44-.44-22.53-.44-10.08,0-17.59.15-22.53.44v-2.96c3.75-.2,6.42-.67,8-1.41,1.58-.74,2.37-2.05,2.37-3.93,0-1.78-.59-4.15-1.78-7.12l-8.89-24.31h-32.31l-3.85,10.23c-2.77,7.12-4.15,12.6-4.15,16.45s1.11,6.2,3.34,7.63c2.22,1.43,5.51,2.25,9.86,2.45v2.96c-6.72-.3-12.85-.44-18.38-.44-4.55,0-8.3.15-11.27.44v-2.96c4.84-.89,9.09-6.08,12.75-15.56L581.75.19c1.09.1,2.82.15,5.19.15s4.05-.05,5.04-.15l36.02,92.79c1.28,3.26,2.77,5.63,4.45,7.11ZM590.94,62.74l-14.67-40.02-15.42,40.02h30.09Z"/>
      <path class="cls-1" d="M747.18,3.16c-3.26.5-5.66,1.33-7.19,2.52-1.53,1.19-2.57,3.06-3.11,5.63-.54,2.57-.82,6.37-.82,11.41v82.71l-3.56-.15-4,.15-64.33-81.53v56.92c0,5.83.3,10.11.89,12.82.59,2.72,1.88,4.7,3.85,5.93,1.98,1.24,5.19,2.1,9.63,2.59v2.96c-3.85-.3-9.19-.44-16.01-.44-5.44,0-9.73.15-12.9.44v-2.96c3.26-.49,5.66-1.33,7.19-2.52,1.53-1.19,2.57-3.06,3.11-5.63.54-2.57.82-6.37.82-11.41V15.9c0-3.75-.27-6.47-.82-8.15-.54-1.68-1.58-2.82-3.11-3.41-1.53-.59-3.93-.99-7.19-1.19V.19c3.16.3,7.46.44,12.9.44,4.94,0,9.19-.15,12.75-.44l57.37,70.71V24.5c0-5.83-.3-10.1-.89-12.82-.59-2.72-1.88-4.69-3.85-5.93-1.98-1.23-5.19-2.1-9.63-2.59V.19c3.85.3,9.19.44,16.01.44,5.53,0,9.83-.15,12.9-.44v2.96Z"/>
      <path class="cls-1" d="M839.49,6.26c7.86,4.1,13.96,10.03,18.31,17.8,4.35,7.77,6.52,17.04,6.52,27.81s-2.22,19.78-6.67,27.88c-4.45,8.1-10.65,14.39-18.6,18.87-7.96,4.48-17.02,6.72-27.2,6.72s-19.64-2.05-27.5-6.15c-7.86-4.1-13.96-10.03-18.31-17.8-4.35-7.77-6.52-17.04-6.52-27.81s2.22-19.78,6.67-27.88c4.45-8.1,10.65-14.39,18.6-18.87,7.95-4.48,17.02-6.72,27.2-6.72s19.64,2.05,27.5,6.15ZM797.03,9.04c-4.15,4.24-7.34,10.18-9.56,17.8-2.22,7.63-3.34,16.35-3.34,26.17s1.26,18.64,3.78,26.17c2.52,7.53,5.93,13.35,10.23,17.44,4.3,4.1,9.07,6.15,14.3,6.15s10.23-2.12,14.38-6.36c4.15-4.24,7.34-10.17,9.56-17.8,2.22-7.63,3.33-16.35,3.33-26.17s-1.26-18.63-3.78-26.17c-2.52-7.53-5.93-13.34-10.23-17.44-4.3-4.1-9.07-6.15-14.3-6.15s-10.23,2.12-14.38,6.36Z"/>
    </g>
  </g>
</svg>