<?xml version="1.0" encoding="UTF-8"?>
<svg id="Capa_2" data-name="Capa 2" xmlns="http://www.w3.org/2000/svg" viewBox="0 0 278.14 278.14">
  <defs>
    <style>
      .cls-1 {
        fill: #1d1d1b;
      }

      .cls-2 {
        fill: #cea659;
      }
    </style>
  </defs>
  <g id="Capa_1-2" data-name="Capa 1">
    <path class="cls-2" d="M139.07,278.14C62.39,278.14,0,215.75,0,139.07S62.39,0,139.07,0s139.07,62.39,139.07,139.07-62.39,139.07-139.07,139.07ZM139.07,8.16C66.88,8.16,8.16,66.88,8.16,139.07s58.73,130.91,130.91,130.91,130.91-58.73,130.91-130.91S211.25,8.16,139.07,8.16Z"/>
    <path class="cls-2" d="M202.93,78.31c.8-2.27,2.31-3.81,4.51-4.6,2.21-.8,5.72-1.34,10.53-1.61v-4.01c-3.08.2-6.73.35-10.99.44-4.24.1-9.08.15-14.48.15-5.85,0-11.28,3.05-14.32,8.05l-38.11,62.66-.09.16-.85-1.39-33.9-54.92c-5.6-9.09-15.53-14.58-26.21-14.58h-.2c-8.03,0-14.24-.2-18.65-.59v4.01c4.81.27,8.32.8,10.53,1.61,2.2.79,3.71,2.33,4.51,4.6.8,2.28,1.2,5.95,1.2,11.03v97.45c0,5.08-.4,8.91-1.2,11.52-.8,2.61-2.34,4.47-4.61,5.62-2.27,1.13-5.74,1.84-10.43,2.11v4.01c4.42-.41,10.63-.61,18.65-.61,8.82,0,15.64.2,20.45.61v-4.01c-5.35-.27-9.3-.98-11.84-2.11-2.54-1.14-4.24-2.97-5.1-5.51-.87-2.54-1.31-6.42-1.31-11.63v-105.87l41.27,59.12,6.86,9.83s.05.08.08.12l1.69,2.42c-7.19,10.82-13.17,22.43-13.41,35.49-.07,6.97,1.9,14.72,7.75,19.02,6.16,4.67,15.42,3.93,21.13-1.08,11.24-9.55,9.44-30.27,3.08-47.41-1.69-4.15-4.09-9.07-6.2-13.05l.48-.77,39.33-63.29v107.48c0,5.08-.4,8.75-1.2,11.02s-2.31,3.81-4.51,4.61c-2.2.8-5.71,1.34-10.52,1.61v4.01c5.62-.41,14.17-.61,25.66-.61,10.82,0,19.32.2,25.47.61v-4.01c-4.81-.27-8.32-.8-10.53-1.61-2.2-.8-3.71-2.34-4.51-4.61s-1.2-5.94-1.2-11.02v-99.45c0-5.08.4-8.75,1.2-11.03ZM140.57,196.09c-7.56,10.25-17.76.56-17.15-9.23.01-5,1.61-10.22,4.08-15.37,4.25-8.54,3.44-6.35,7.57-12.9,0,0,0-.01.01-.02,3.68,6.09,6.41,12.51,7.8,19.28,1.24,6.01,1.29,13.02-2.31,18.24Z"/>
    <path class="cls-1" d="M117.15,176.75c-.06.17-.1.36-.15.54l-.02-.05c.06-.17.1-.34.17-.49Z"/>
  </g>
</svg>