<?xml version="1.0" encoding="UTF-8"?>
<svg id="Capa_2" data-name="Capa 2" xmlns="http://www.w3.org/2000/svg" viewBox="0 0 729.93 241.99">
  <defs>
    <style>
      .cls-1 {
        fill: #242320;
      }
    </style>
  </defs>
  <g id="Capa_1-2" data-name="Capa 1">
    <path class="cls-1" d="M262.53,235.25v6.74h-31.53v-43.28h30.69v6.74h-22.88v11.25h20.3v6.62h-20.3v11.93h23.72Z"/>
    <path class="cls-1" d="M318.1,198.71l-18.86,43.28h-7.91l-18.92-43.28h8.72l14.41,33.39,14.53-33.39h8.04Z"/>
    <path class="cls-1" d="M359.53,235.25v6.74h-31.54v-43.28h30.7v6.74h-22.89v11.25h20.31v6.62h-20.31v11.93h23.73Z"/>
    <path class="cls-1" d="M407.87,198.71v43.28h-6.62l-23.87-29.31v29.31h-7.98v-43.28h6.62l23.87,29.31v-29.31h7.98Z"/>
    <path class="cls-1" d="M432.1,205.51h-14.34v-6.8h36.73v6.8h-14.34v36.48h-8.04v-36.48Z"/>
    <path class="cls-1" d="M464.37,236.94l2.78-6.07c3.46,2.71,8.96,4.63,14.28,4.63,6.74,0,9.58-2.34,9.58-5.47,0-9.08-25.72-3.13-25.72-18.76,0-6.79,5.56-12.56,17.44-12.56,5.19,0,10.63,1.32,14.41,3.73l-2.54,6.07c-3.89-2.22-8.16-3.31-11.93-3.31-6.68,0-9.4,2.52-9.4,5.71,0,8.96,25.66,3.13,25.66,18.58,0,6.73-5.63,12.5-17.5,12.5-6.74,0-13.48-2.04-17.06-5.05Z"/>
    <path class="cls-1" d="M141.03,4.89c-1.74.7-2.93,2.04-3.57,4.01-.64,1.98-.96,5.18-.96,9.6v86.54c0,4.42.32,7.62.96,9.6.64,1.98,1.86,3.32,3.66,4.01,1.8.7,4.61,1.16,8.44,1.4v3.49c-6.38-.35-15.5-.52-27.34-.52-12.42,0-21.59.17-27.51.52v-3.49c4.18-.23,7.23-.7,9.14-1.4,1.92-.7,3.22-2.03,3.92-4.01.7-1.98,1.04-5.17,1.04-9.6V13.78l-41.96,109.92h-2.79L17.06,11.34v83.57c0,6.86.35,11.89,1.04,15.09.7,3.2,2.2,5.53,4.53,6.98,2.32,1.46,6.09,2.47,11.32,3.05v3.49c-4.53-.35-10.79-.52-18.8-.52-6.38,0-11.43.17-15.15.52v-3.49c3.83-.58,6.64-1.57,8.44-2.97,1.8-1.4,3.02-3.6,3.66-6.63.64-3.02.96-7.5.96-13.43V18.49c0-4.42-.32-7.62-.96-9.6-.64-1.98-1.86-3.32-3.66-4.01-1.8-.7-4.61-1.16-8.44-1.4V0c3.71.35,8.76.52,15.15.52,10.68,0,19.85-.18,27.51-.52l35.17,84.97L109.86.52h12.36c11.84,0,20.95-.18,27.34-.52v3.49c-3.95.23-6.79.7-8.53,1.4Z"/>
    <path class="cls-1" d="M217.82,3.72c-3.95.23-6.79.7-8.53,1.4-1.74.7-2.93,2.04-3.57,4.02-.64,1.98-.96,5.18-.96,9.6v86.6c0,4.43.32,7.62.96,9.6.64,1.98,1.83,3.32,3.57,4.02,1.74.7,4.58,1.16,8.53,1.4v3.49c-6.27-.35-15.03-.52-26.29-.52-12.42,0-21.59.17-27.51.52v-3.49c3.83-.23,6.64-.7,8.44-1.4,1.8-.7,3.02-2.04,3.66-4.02.64-1.98.96-5.18.96-9.6V18.73c0-4.42-.32-7.62-.96-9.6-.64-1.98-1.86-3.32-3.66-4.02-1.8-.7-4.61-1.16-8.44-1.4V.22c5.92.35,15.09.52,27.51.52,11.26,0,20.02-.18,26.29-.52v3.49Z"/>
    <path class="cls-1" d="M287.12,3.72c-4.18.23-7.23.7-9.14,1.4-1.92.7-3.22,2.04-3.92,4.02-.7,1.98-1.04,5.18-1.04,9.6v88.7c0,3.73.29,6.43.87,8.12.58,1.69,1.59,2.82,3.05,3.41,1.45.58,3.8.87,7.05.87h8.53c7.89,0,14.71-3.55,20.46-10.65,5.75-7.1,9.49-16.53,11.23-28.29h4c-.35,3.96-.52,9.08-.52,15.36,0,11.18.41,20.37,1.22,27.59-7.89-.35-21.18-.52-39.87-.52-25.31,0-44.22.17-56.76.52v-3.49c3.83-.23,6.64-.7,8.44-1.4,1.8-.7,3.02-2.04,3.66-4.02.64-1.98.96-5.18.96-9.6V18.73c0-4.42-.32-7.62-.96-9.6-.64-1.98-1.86-3.32-3.66-4.02-1.8-.7-4.61-1.16-8.44-1.4V.22c5.92.35,15.09.52,27.51.52s20.95-.18,27.33-.52v3.49Z"/>
    <path class="cls-1" d="M457.58,117.57c1.97,1.74,3.89,2.67,5.75,2.79v3.48c-6.96-.35-15.79-.52-26.46-.52-11.84,0-20.66.17-26.46.52v-3.48c4.41-.23,7.54-.78,9.4-1.65,1.86-.87,2.79-2.41,2.79-4.61,0-2.09-.7-4.88-2.09-8.36l-10.45-28.55h-37.96l-4.53,12.01c-3.25,8.36-4.87,14.8-4.87,19.33s1.31,7.29,3.92,8.97c2.61,1.68,6.47,2.64,11.58,2.87v3.48c-7.9-.35-15.09-.52-21.59-.52-5.34,0-9.75.17-13.23.52v-3.48c5.69-1.04,10.68-7.14,14.97-18.28L398.03.22c1.28.12,3.31.17,6.09.17s4.76-.06,5.92-.17l42.31,108.99c1.51,3.83,3.25,6.62,5.22,8.36ZM408.82,73.7l-17.24-47.01-18.11,47.01h35.34Z"/>
    <path class="cls-1" d="M592.34,3.71c-3.83.58-6.65,1.57-8.44,2.96-1.8,1.39-3.02,3.6-3.66,6.62-.64,3.02-.96,7.49-.96,13.41v97.15l-4.18-.17-4.7.17-75.56-95.76v66.86c0,6.85.35,11.87,1.04,15.06.7,3.19,2.2,5.51,4.53,6.96,2.32,1.45,6.09,2.47,11.32,3.05v3.48c-4.53-.35-10.79-.52-18.8-.52-6.38,0-11.43.17-15.15.52v-3.48c3.83-.58,6.64-1.57,8.44-2.96,1.8-1.39,3.02-3.6,3.66-6.62.64-3.02.96-7.49.96-13.41V18.68c0-4.41-.32-7.6-.96-9.58-.64-1.97-1.86-3.31-3.66-4-1.8-.7-4.61-1.16-8.44-1.39V.22c3.71.35,8.76.52,15.15.52,5.8,0,10.79-.17,14.97-.52l67.38,83.05V28.78c0-6.85-.35-11.87-1.04-15.06-.7-3.19-2.21-5.51-4.53-6.96-2.32-1.45-6.09-2.46-11.32-3.05V.22c4.53.35,10.79.52,18.8.52,6.5,0,11.55-.17,15.15-.52v3.48Z"/>
    <path class="cls-1" d="M700.77,7.35c9.23,4.82,16.39,11.79,21.5,20.91,5.11,9.13,7.66,20.01,7.66,32.67s-2.61,23.23-7.83,32.75c-5.22,9.52-12.51,16.91-21.85,22.17-9.34,5.26-20,7.89-31.95,7.89s-23.07-2.41-32.3-7.22c-9.23-4.81-16.4-11.78-21.5-20.91-5.11-9.12-7.66-20.01-7.66-32.67s2.61-23.23,7.83-32.75c5.22-9.51,12.51-16.9,21.85-22.17,9.34-5.26,19.99-7.89,31.95-7.89s23.07,2.41,32.3,7.22ZM650.88,10.62c-4.88,4.98-8.62,11.95-11.23,20.91-2.61,8.96-3.92,19.2-3.92,30.73s1.48,21.89,4.44,30.73c2.96,8.85,6.96,15.68,12.01,20.49,5.05,4.82,10.65,7.22,16.8,7.22s12.01-2.49,16.89-7.47c4.88-4.98,8.62-11.95,11.23-20.91,2.61-8.96,3.92-19.2,3.92-30.73s-1.48-21.89-4.44-30.73c-2.96-8.84-6.96-15.67-12.01-20.49-5.05-4.81-10.65-7.22-16.8-7.22s-12.01,2.49-16.89,7.47Z"/>
  </g>
</svg>